<?xml version="1.0" encoding="utf-8"?>
<!-- Generator: Adobe Illustrator 23.1.0, SVG Export Plug-In . SVG Version: 6.00 Build 0)  -->
<svg version="1.1" id="Слой_1" xmlns="http://www.w3.org/2000/svg" xmlns:xlink="http://www.w3.org/1999/xlink" x="0px" y="0px"
	 viewBox="0 0 120 120" style="enable-background:new 0 0 120 120;" xml:space="preserve">
<g transform="translate(0.000000,1280.000000) scale(0.100000,-0.100000)">
	<path d="M423.8,12751.5c-15.7-3.7-27.5-10.5-41-24c-10.9-10.8-18.7-21.8-26.2-36.8c-44.8-89.7-29.7-237.7,33.2-322.5
		c8.6-11.6,23.4-26.8,33.6-34.4c33.3-25.1,70.7-26.4,100.7-3.6c30.7,23.5,51.8,68.8,59.8,128.7c2,15.4,2.4,63.2,0.5,79
		c-7.7,66-27.4,120.6-58.1,161.9c-7.7,10.2-22.8,25.7-32.3,32.9c-8.8,6.7-25.6,15.3-34.3,17.7
		C451.7,12752.6,431.1,12753.1,423.8,12751.5z"/>
	<path d="M793.3,12732.5c-29.2-5.7-59.8-28.1-85.1-62.1c-32.5-43.7-54.5-101.5-62.8-165.3c-2.6-20.3-2.4-65.6,0.5-84
		c6.6-42,20.6-74.2,41.6-95c18-18,40.5-26.4,63.5-23.7c54.6,6.8,108.5,66.4,137.3,151.9c23.9,71,26.4,145.7,6.9,202.7
		C875.9,12712.4,837.2,12741.2,793.3,12732.5z"/>
	<path d="M186.9,12425.6c-38.5-6.1-67.4-37.1-80.5-86.4c-7.4-28.3-8.5-67.3-2.6-101.6c13.4-79.9,59.7-153.3,114.4-181.7
		c28-14.5,55.9-17,79.9-7.1c35.3,14.7,58.6,52.6,66.2,108.4c1.5,11.2,1.5,44.4-0.1,57.3c-12.2,103.6-76.1,194.5-147,209.6
		C208.8,12426,193.9,12426.6,186.9,12425.6z"/>
	<path d="M983.6,12349.5c-33.8-7.2-67-31-94.6-67.9c-29.9-40-50-92.3-55.8-145c-1.5-13.7-1.2-43.2,0.5-56.5
		c11.5-89.1,72-131.9,140.5-99.6c36.8,17.4,70,53.2,93.8,100.9c45.1,90.3,42.2,196-6.9,245
		C1040.5,12347.1,1012,12355.6,983.6,12349.5z"/>
	<path d="M575.1,12182.2c-62.2-11.1-140.7-76.4-210.3-175c-54.4-77.2-92.8-160.3-104.3-226.1c-2.7-15.8-3-44-0.6-54.8
		c3.9-16.8,10.3-27.9,22.9-39.7c21.1-19.5,46.3-30.9,78-35.3c16.5-2.3,49.7-1.4,70.9,1.8c28.3,4.4,52.2,10.2,105.7,25.6
		c51.7,14.9,66.2,18,80.5,17c18.1-1.2,31.8-5.6,70.9-22.8c28-12.3,43.6-18.1,57-21.4c49.8-12,91.8,3.7,134.9,50.5
		c12.9,13.9,16.8,20.7,20.9,35.4c2.3,8.5,2.4,10.3,2.4,30.2c0,18-0.3,23-2.2,33.4c-11.1,62.7-44.1,138.5-91.8,210.6
		c-56.7,85.7-123.2,147.5-178.8,165.8C611.1,12184,593.9,12185.5,575.1,12182.2z"/>
</g>
</svg>
